<?xml version="1.0" encoding="utf-8"?>
<!-- Generator: Adobe Illustrator 24.2.3, SVG Export Plug-In . SVG Version: 6.00 Build 0)  -->
<svg version="1.1" id="Layer_1" xmlns="http://www.w3.org/2000/svg" xmlns:xlink="http://www.w3.org/1999/xlink" x="0px" y="0px"
	 viewBox="0 0 1769.8 2009.9" style="enable-background:new 0 0 1769.8 2009.9;" xml:space="preserve">
<style type="text/css">
	.st0{fill:#264DE4;}
	.st1{fill:#2965F1;}
	.st2{fill:#EBEBEB;}
	.st3{fill:#FFFFFF;}
</style>
<path class="st0" d="M882.2,2003.6l-721.5-200.3L0,0h1766.7l-160.9,1803L882.2,2003.6L882.2,2003.6z"/>
<path class="st1" d="M1467.9,1688.2l137.5-1540.8H883.3v1702.9L1467.9,1688.2L1467.9,1688.2z"/>
<path class="st2" d="M368.5,816.2l19.8,221.2h494.9V816.2H368.5z M328.7,368.6l20.1,221.2h534.5V368.6H328.7L328.7,368.6z
	 M883.3,1390.6l-1,0.3L636,1324.4L620.3,1148h-222l31,347.3l453.1,125.8l1-0.3L883.3,1390.6L883.3,1390.6z"/>
<path class="st3" d="M1396.6,816.2l39.9-447.7h-554v221.2h311.6L1174,816.2H882.5v221.2h272.3l-25.7,286.8l-246.7,66.6v230.1
	l453.4-125.7l3.3-37.4l52-582.3L1396.6,816.2L1396.6,816.2z"/>
</svg>
