<?xml version="1.0" encoding="utf-8"?>
<!-- Generator: Adobe Illustrator 24.2.3, SVG Export Plug-In . SVG Version: 6.00 Build 0)  -->
<svg version="1.1" id="Layer_1" xmlns="http://www.w3.org/2000/svg" xmlns:xlink="http://www.w3.org/1999/xlink" x="0px" y="0px"
	 viewBox="0 0 5261.2 2009.9" style="enable-background:new 0 0 5261.2 2009.9;" xml:space="preserve">
<style type="text/css">
	.st0{fill:#264DE4;}
	.st1{fill:#2965F1;}
	.st2{fill:#EBEBEB;}
	.st3{fill:#FFFFFF;}
</style>
<path class="st0" d="M4373.6,2003.6l-721.5-200.3L3491.4,0h1766.7l-160.9,1803L4373.6,2003.6L4373.6,2003.6z"/>
<path class="st1" d="M4959.3,1688.2l137.5-1540.8h-722.1v1702.9L4959.3,1688.2L4959.3,1688.2z"/>
<path class="st2" d="M3859.9,816.2l19.8,221.2h494.9V816.2H3859.9z M3820.1,368.6l20.1,221.2h534.5V368.6H3820.1L3820.1,368.6z
	 M4374.7,1390.6l-1,0.3l-246.3-66.5l-15.7-176.4h-222l31,347.3l453.1,125.8l1-0.3L4374.7,1390.6L4374.7,1390.6z"/>
<path d="M0,414.1h928.7v388.2H388.6v388.2H929v388.2H0V414.1z M1114.5,414.1h928.7v337.6h-540.4v67.6h540.4v776.5h-928.7v-354.6
	h540.4v-67.6h-540.4V414.1L1114.5,414.1z M2228.6,414.1h928.7v337.6h-540.4v67.6h540.4v776.5h-928.7v-354.6H2769v-67.6h-540.1
	L2228.6,414.1L2228.6,414.1z"/>
<path class="st3" d="M4888,816.2l39.9-447.7h-554v221.2h311.6l-20.1,226.5h-291.5v221.2h272.3l-25.7,286.8l-246.7,66.6v230.1
	l453.4-125.7l3.3-37.4l52-582.3L4888,816.2L4888,816.2z"/>
</svg>
