<?xml version="1.0" encoding="utf-8"?>
<!-- Generator: Adobe Illustrator 24.2.3, SVG Export Plug-In . SVG Version: 6.00 Build 0)  -->
<svg version="1.1" id="Layer_1" xmlns="http://www.w3.org/2000/svg" xmlns:xlink="http://www.w3.org/1999/xlink" x="0px" y="0px"
	 viewBox="0 0 96.2 132" style="enable-background:new 0 0 96.2 132;" xml:space="preserve">
<style type="text/css">
	.st0{fill:url(#path-2_6_);}
	.st1{filter:url(#Adobe_OpacityMaskFilter);}
	.st2{fill-rule:evenodd;clip-rule:evenodd;fill:#FFFFFF;}
	.st3{mask:url(#mask-3_1_);}
	.st4{fill:#FFA000;}
	.st5{fill:#F57C00;}
	.st6{filter:url(#Adobe_OpacityMaskFilter_1_);}
	.st7{mask:url(#mask-3_2_);}
	.st8{fill:#FFCA28;}
	.st9{filter:url(#Adobe_OpacityMaskFilter_2_);}
	.st10{mask:url(#mask-3_3_);fill:#FFFFFF;fill-opacity:0.2;}
	.st11{filter:url(#Adobe_OpacityMaskFilter_3_);}
	.st12{opacity:0.2;mask:url(#mask-3_4_);fill:#A52714;enable-background:new    ;}
	.st13{fill:none;}
	.st14{fill:url(#path-4_2_);}
</style>
<desc>Created with Sketch.</desc>
<g id="Page-1">
	<g id="styleguide" transform="translate(-243.000000, -875.000000)">
		<g id="Group-10" transform="translate(154.000000, 835.000000)">
			<g id="logo_lockup_firebase_horizontal" transform="translate(66.000000, 34.000000)">
				<g id="_Group_">
					<g id="_Clip_Group_" transform="translate(23.833333, 5.958333)">
						<g id="_Path_3">
							
								<linearGradient id="path-2_6_" gradientUnits="userSpaceOnUse" x1="-718.2634" y1="603.2623" x2="-717.2202" y2="602.5035" gradientTransform="matrix(95.3333 0 0 -131.0572 68471.1094 79084.1719)">
								<stop  offset="0" style="stop-color:#FFFFFF;stop-opacity:0.1"/>
								<stop  offset="0.14" style="stop-color:#FFFFFF;stop-opacity:8.000000e-02"/>
								<stop  offset="0.61" style="stop-color:#FFFFFF;stop-opacity:2.000000e-02"/>
								<stop  offset="1" style="stop-color:#FFFFFF;stop-opacity:0"/>
							</linearGradient>
							<path id="path-2_1_" class="st0" d="M83,29.3c-0.2-1.1-1-2-2-2.3c-1.1-0.3-2.2-0.1-3,0.7L62.5,43.2L50.3,20
								c-0.5-1-1.5-1.6-2.6-1.6c-1.1,0-2.1,0.6-2.6,1.6l-6.7,12.7L21.7,1.6c-0.6-1.1-1.9-1.7-3.1-1.5c-1.3,0.2-2.2,1.2-2.4,2.5
								L0,105.8l43.1,24.2c2.7,1.5,6,1.5,8.7,0l43.5-24.2L83,29.3z"/>
						</g>
						<defs>
							<filter id="Adobe_OpacityMaskFilter" filterUnits="userSpaceOnUse" x="-6" y="0" width="101.3" height="108.7">
								<feColorMatrix  type="matrix" values="1 0 0 0 0  0 1 0 0 0  0 0 1 0 0  0 0 0 1 0"/>
							</filter>
						</defs>
						<mask maskUnits="userSpaceOnUse" x="-6" y="0" width="101.3" height="108.7" id="mask-3_1_">
							<g class="st1">
								<path id="path-2_2_" class="st2" d="M83,29.3c-0.2-1.1-1-2-2-2.3c-1.1-0.3-2.2-0.1-3,0.7L62.5,43.2L50.3,20
									c-0.5-1-1.5-1.6-2.6-1.6c-1.1,0-2.1,0.6-2.6,1.6l-6.7,12.7L21.7,1.6c-0.6-1.1-1.9-1.7-3.1-1.5c-1.3,0.2-2.2,1.2-2.4,2.5
									L0,105.8l43.1,24.2c2.7,1.5,6,1.5,8.7,0l43.5-24.2L83,29.3z"/>
							</g>
						</mask>
						<g id="_Group_2" class="st3">
							<g transform="translate(-5.958333, 0.000000)">
								<path id="_Path_" class="st4" d="M6,105.8L22.1,2.5c0.2-1.3,1.2-2.3,2.4-2.5c1.3-0.2,2.5,0.4,3.1,1.5l16.7,31.1L51,20
									c0.5-1,1.5-1.6,2.6-1.6c1.1,0,2.1,0.6,2.6,1.6l45,85.7H6z"/>
								<g id="_Group_3" transform="translate(0.000000, 26.067708)">
									<g style="opacity:0.12;enable-background:new    ;">
										
											<image style="overflow:visible;" width="87" height="111" id="Bitmap" xlink:href="7EBC919F.png"  transform="matrix(0.7448 0 0 0.7448 0 0)">
										</image>
									</g>
									<polygon id="Shape_1_" class="st5" points="61.7,39.5 44.3,6.6 6,79.7 									"/>
								</g>
							</g>
						</g>
						<defs>
							<filter id="Adobe_OpacityMaskFilter_1_" filterUnits="userSpaceOnUse" x="-3" y="20.1" width="104.3" height="114">
								<feColorMatrix  type="matrix" values="1 0 0 0 0  0 1 0 0 0  0 0 1 0 0  0 0 0 1 0"/>
							</filter>
						</defs>
						<mask maskUnits="userSpaceOnUse" x="-3" y="20.1" width="104.3" height="114" id="mask-3_2_">
							<g class="st6">
								<path id="path-2_3_" class="st2" d="M83,29.3c-0.2-1.1-1-2-2-2.3c-1.1-0.3-2.2-0.1-3,0.7L62.5,43.2L50.3,20
									c-0.5-1-1.5-1.6-2.6-1.6c-1.1,0-2.1,0.6-2.6,1.6l-6.7,12.7L21.7,1.6c-0.6-1.1-1.9-1.7-3.1-1.5c-1.3,0.2-2.2,1.2-2.4,2.5
									L0,105.8l43.1,24.2c2.7,1.5,6,1.5,8.7,0l43.5-24.2L83,29.3z"/>
							</g>
						</mask>
						<g id="_Group_4" class="st7">
							<g transform="translate(-2.979167, 20.109375)">
								<g style="opacity:0.2;enable-background:new    ;">
									
										<image style="overflow:visible;" width="140" height="153" id="Bitmap_2_" xlink:href="7EBC919D.png"  transform="matrix(0.7448 0 0 0.7448 0 0)">
									</image>
								</g>
								<path id="Shape_2_" class="st8" d="M98.3,85.7L86,9.2c-0.2-1.1-1-2-2-2.3c-1.1-0.3-2.2-0.1-3,0.7L3,85.7l43.1,24.2
									c2.7,1.5,6,1.5,8.7,0L98.3,85.7z"/>
							</g>
						</g>
						<defs>
							<filter id="Adobe_OpacityMaskFilter_2_" filterUnits="userSpaceOnUse" x="-0.1" y="0" width="95.4" height="106">
								<feColorMatrix  type="matrix" values="1 0 0 0 0  0 1 0 0 0  0 0 1 0 0  0 0 0 1 0"/>
							</filter>
						</defs>
						<mask maskUnits="userSpaceOnUse" x="-0.1" y="0" width="95.4" height="106" id="mask-3_3_">
							<g class="st9">
								<path id="path-2_4_" class="st2" d="M83,29.3c-0.2-1.1-1-2-2-2.3c-1.1-0.3-2.2-0.1-3,0.7L62.5,43.2L50.3,20
									c-0.5-1-1.5-1.6-2.6-1.6c-1.1,0-2.1,0.6-2.6,1.6l-6.7,12.7L21.7,1.6c-0.6-1.1-1.9-1.7-3.1-1.5c-1.3,0.2-2.2,1.2-2.4,2.5
									L0,105.8l43.1,24.2c2.7,1.5,6,1.5,8.7,0l43.5-24.2L83,29.3z"/>
							</g>
						</mask>
						<path id="_Compound_Path_" class="st10" d="M83,29.3c-0.2-1.1-1-2-2-2.3c-1.1-0.3-2.2-0.1-3,0.7L62.5,43.2L50.3,20
							c-0.5-1-1.5-1.6-2.6-1.6c-1.1,0-2.1,0.6-2.6,1.6l-6.7,12.7L21.7,1.6c-0.6-1.1-1.9-1.7-3.1-1.5c-1.3,0.2-2.2,1.2-2.4,2.5
							L0,105.8h-0.1l0.1,0.1l0.4,0.2l62-62.1l15.5-15.5c0.8-0.8,2-1.1,3-0.7c1.1,0.3,1.8,1.2,2,2.3l12.3,75.8l0.1-0.1L83,29.3z
							 M0.1,105.6l16-102.3C16.3,2,17.3,1,18.6,0.8c1.3-0.2,2.5,0.4,3.1,1.5l16.7,31.1L45,20.8c0.5-1,1.5-1.6,2.6-1.6
							c1.1,0,2.1,0.6,2.6,1.6l11.9,22.7L0.1,105.6z"/>
						<defs>
							<filter id="Adobe_OpacityMaskFilter_3_" filterUnits="userSpaceOnUse" x="0" y="105.1" width="95.3" height="26">
								<feColorMatrix  type="matrix" values="1 0 0 0 0  0 1 0 0 0  0 0 1 0 0  0 0 0 1 0"/>
							</filter>
						</defs>
						<mask maskUnits="userSpaceOnUse" x="0" y="105.1" width="95.3" height="26" id="mask-3_4_">
							<g class="st11">
								<path id="path-2_5_" class="st2" d="M83,29.3c-0.2-1.1-1-2-2-2.3c-1.1-0.3-2.2-0.1-3,0.7L62.5,43.2L50.3,20
									c-0.5-1-1.5-1.6-2.6-1.6c-1.1,0-2.1,0.6-2.6,1.6l-6.7,12.7L21.7,1.6c-0.6-1.1-1.9-1.7-3.1-1.5c-1.3,0.2-2.2,1.2-2.4,2.5
									L0,105.8l43.1,24.2c2.7,1.5,6,1.5,8.7,0l43.5-24.2L83,29.3z"/>
							</g>
						</mask>
						<path id="_Path_2" class="st12" d="M51.8,129.2c-2.7,1.5-6,1.5-8.7,0l-43-24.1L0,105.8l43.1,24.2c2.7,1.5,6,1.5,8.7,0
							l43.5-24.2l-0.1-0.7L51.8,129.2z"/>
					</g>
					<polygon id="_Rectangle_3" class="st13" points="0,0 143,0 143,143 0,143 					"/>
				</g>
				<g id="_Path_3-Copy">
					
						<linearGradient id="path-4_2_" gradientUnits="userSpaceOnUse" x1="-694.4034" y1="609.2191" x2="-693.3602" y2="608.4603" gradientTransform="matrix(95 0 0 -131 65989 79836)">
						<stop  offset="0" style="stop-color:#FFFFFF;stop-opacity:0.1"/>
						<stop  offset="0.14" style="stop-color:#FFFFFF;stop-opacity:8.000000e-02"/>
						<stop  offset="0.61" style="stop-color:#FFFFFF;stop-opacity:2.000000e-02"/>
						<stop  offset="1" style="stop-color:#FFFFFF;stop-opacity:0"/>
					</linearGradient>
					<path id="path-4_1_" class="st14" d="M106.7,35.3c-0.2-1.1-1-2-2-2.3c-1.1-0.3-2.2-0.1-3,0.7L86.2,49.2L74.1,26
						c-0.5-1-1.5-1.6-2.6-1.6S69.4,25,68.9,26l-6.6,12.7L45.6,7.6C45,6.4,43.8,5.8,42.5,6c-1.3,0.2-2.2,1.2-2.4,2.5L24,111.7
						l43,24.2c2.7,1.5,6,1.5,8.7,0l43.3-24.2L106.7,35.3z"/>
				</g>
			</g>
		</g>
	</g>
</g>
</svg>
