<?xml version="1.0" encoding="utf-8"?>
<!-- Generator: Adobe Illustrator 24.2.3, SVG Export Plug-In . SVG Version: 6.00 Build 0)  -->
<svg version="1.1" id="Layer_1" xmlns="http://www.w3.org/2000/svg" xmlns:xlink="http://www.w3.org/1999/xlink" x="0px" y="0px"
	 viewBox="0 0 90.9 91.5" style="enable-background:new 0 0 90.9 91.5;" xml:space="preserve">
<style type="text/css">
	.st0{fill:#F05133;}
</style>
<g>
	<path class="st0" d="M89.2,41.6L49.4,1.8c-2.3-2.3-6-2.3-8.3,0l-8.3,8.3l10.5,10.5c2.4-0.8,5.2-0.3,7.2,1.7s2.5,4.8,1.7,7.2
		l10.1,10.1c2.4-0.8,5.3-0.3,7.2,1.7c2.7,2.7,2.7,7.1,0,9.9c-2.7,2.7-7.1,2.7-9.9,0c-2.1-2.1-2.6-5.1-1.5-7.6l-9.4-9.4V59
		c0.7,0.3,1.3,0.8,1.8,1.3c2.7,2.7,2.7,7.1,0,9.9c-2.7,2.7-7.2,2.7-9.9,0s-2.7-7.2,0-9.9c0.7-0.7,1.5-1.2,2.3-1.5v-25
		c-0.8-0.3-1.6-0.8-2.3-1.5c-2.1-2.1-2.6-5.1-1.5-7.6L28.8,14.4L1.5,41.7c-2.3,2.3-2.3,6,0,8.3l39.8,39.8c2.3,2.3,6,2.3,8.3,0
		l39.6-39.6C91.5,47.6,91.5,43.9,89.2,41.6z"/>
</g>
</svg>
