<?xml version="1.0" encoding="utf-8"?>
<!-- Generator: Adobe Illustrator 24.2.3, SVG Export Plug-In . SVG Version: 6.00 Build 0)  -->
<svg version="1.1" id="Layer_1" xmlns="http://www.w3.org/2000/svg" xmlns:xlink="http://www.w3.org/1999/xlink" x="0px" y="0px"
	 viewBox="0 0 1772.5 2011.3" style="enable-background:new 0 0 1772.5 2011.3;" xml:space="preserve">
<style type="text/css">
	.st0{fill:#E34E26;}
	.st1{fill:#EF662A;}
	.st2{fill:#FFFFFF;}
	.st3{fill:#EBEBEB;}
</style>
<g id="Guides_to_delete_1_">
	<g>
		<polygon class="st0" points="161.3,1810 0,0 1772.5,0 1610.7,1810.5 886,2011.3 		"/>
		<polygon class="st1" points="886.5,148.2 886.5,1857.3 1472.7,1695 1610.7,148.2 		"/>
		<polygon class="st2" points="330.4,369.9 389.8,1041.5 1159.4,1041.5 1133.5,1329.5 886,1396.3 638.9,1329.5 622.3,1144.3 
			399.1,1144.3 431.3,1501 886,1627.3 1341.2,1501 1402.1,819.2 593.1,819.2 572.6,592.1 1421.6,592.1 1422.5,592.1 1442.5,369.9 		
			"/>
		<g>
			<polygon class="st3" points="886.5,369.9 330.4,369.9 389.8,1041.5 886.5,1041.5 886.5,819.2 593.1,819.2 572.6,592.1 
				886.5,592.1 			"/>
			<polygon class="st3" points="886.5,1396.3 886,1396.3 638.9,1329.5 622.3,1144.3 399.1,1144.3 431.3,1501 886,1627.3 
				886.5,1627.3 			"/>
		</g>
	</g>
</g>
</svg>
