<?xml version="1.0" encoding="utf-8"?>
<!-- Generator: Adobe Illustrator 24.2.3, SVG Export Plug-In . SVG Version: 6.00 Build 0)  -->
<svg version="1.1" id="Layer_1" xmlns="http://www.w3.org/2000/svg" xmlns:xlink="http://www.w3.org/1999/xlink" x="0px" y="0px"
	 viewBox="0 0 7127 2011.3" style="enable-background:new 0 0 7127 2011.3;" xml:space="preserve">
<style type="text/css">
	.st0{fill:#E34E26;}
	.st1{fill:#EF662A;}
	.st2{fill:#FFFFFF;}
	.st3{fill:#EBEBEB;}
</style>
<g>
	<g>
		<g>
			<path d="M0,415.5h395.6V806H757V415.5h395.6v1181.7H757v-395.6H395.6v395.6H0V415.5L0,415.5z"/>
			<path d="M1671.5,807.7h-347.7V415.5h1090.9v392.2h-347.7v789.5h-395.6V807.7L1671.5,807.7z"/>
			<path d="M2587.8,415.5h412.7L3254,831.7l253.5-416.2h412.7v1181.7h-393.9v-585.7L3254,1431.1h-6.9l-272.3-419.6v585.7h-387.1
				V415.5z"/>
			<path d="M4115.4,415.5H4511v791.2h556.6v390.5h-950.5V415.5H4115.4z"/>
		</g>
	</g>
</g>
<g id="Guides_to_delete_1_">
	<g>
		<polygon class="st0" points="5515.8,1810 5354.5,0 7127,0 6965.2,1810.5 6240.5,2011.3 		"/>
		<polygon class="st1" points="6241,148.2 6241,1857.3 6827.2,1695 6965.2,148.2 		"/>
		<polygon class="st2" points="5684.9,369.9 5744.3,1041.5 6513.9,1041.5 6488,1329.5 6240.5,1396.3 5993.4,1329.5 5976.8,1144.3 
			5753.6,1144.3 5785.8,1501 6240.5,1627.3 6695.7,1501 6756.6,819.2 5947.6,819.2 5927.1,592.1 6776.1,592.1 6777,592.1 
			6797,369.9 		"/>
		<g>
			<polygon class="st3" points="6241,369.9 5684.9,369.9 5744.3,1041.5 6241,1041.5 6241,819.2 5947.6,819.2 5927.1,592.1 
				6241,592.1 			"/>
			<polygon class="st3" points="6241,1396.3 6240.5,1396.3 5993.4,1329.5 5976.8,1144.3 5753.6,1144.3 5785.8,1501 6240.5,1627.3 
				6241,1627.3 			"/>
		</g>
	</g>
</g>
</svg>
