<?xml version="1.0" encoding="utf-8"?>
<!-- Generator: Adobe Illustrator 24.2.3, SVG Export Plug-In . SVG Version: 6.00 Build 0)  -->
<svg version="1.1" id="Layer_1" xmlns="http://www.w3.org/2000/svg" xmlns:xlink="http://www.w3.org/1999/xlink" x="0px" y="0px"
	 viewBox="0 0 30 30" style="enable-background:new 0 0 30 30;" xml:space="preserve">
<style type="text/css">
	.st0{fill-rule:evenodd;clip-rule:evenodd;fill:url(#SVGID_1_);}
</style>
<linearGradient id="SVGID_1_" gradientUnits="userSpaceOnUse" x1="5.315" y1="-2.0356" x2="24.875" y2="31.8433">
	<stop  offset="0.102" style="stop-color:#DD004B"/>
	<stop  offset="0.898" style="stop-color:#FFC000"/>
</linearGradient>
<path class="st0" d="M27.8,0H2.4C1.2,0,0.2,1,0.2,2.1v25.5c0,1.2,1,2.2,2.2,2.2h25.4c1.2,0,2.2-1,2.2-2.2V2.1C30,1,29,0,27.8,0z
	 M9,25.4H4.6V11.2H9V25.4z M6.8,9.2c-1.4,0-2.6-1.1-2.6-2.6c0-1.4,1.1-2.6,2.6-2.6c1.4,0,2.6,1.1,2.6,2.6C9.4,8.1,8.2,9.2,6.8,9.2z
	 M25.6,25.4h-4.4v-6.9c0-1.6,0-3.8-2.3-3.8c-2.3,0-2.7,1.8-2.7,3.7v7h-4.4V11.2H16v1.9h0.1c0.6-1.1,2-2.3,4.2-2.3
	c4.5,0,5.3,2.9,5.3,6.8V25.4z"/>
</svg>
