<?xml version="1.0" encoding="utf-8"?>
<!-- Generator: Adobe Illustrator 24.2.3, SVG Export Plug-In . SVG Version: 6.00 Build 0)  -->
<svg version="1.1" id="Layer_1" xmlns="http://www.w3.org/2000/svg" xmlns:xlink="http://www.w3.org/1999/xlink" x="0px" y="0px"
	 viewBox="0 0 90.9 55.1" style="enable-background:new 0 0 90.9 55.1;" xml:space="preserve">
<style type="text/css">
	.st0{display:none;}
	.st1{display:inline;fill:#F05133;}
	.st2{display:inline;fill:#61DAFB;}
	.st3{fill:#5A8F4E;}
	.st4{fill-rule:evenodd;clip-rule:evenodd;fill:#262626;}
	.st5{fill-rule:evenodd;clip-rule:evenodd;fill:#5A8F4E;}
	.st6{clip-path:url(#XMLID_5_);}
	.st7{fill:none;}
	.st8{fill:url(#SVGID_1_);}
	.st9{fill:url(#SVGID_2_);}
	.st10{fill:url(#SVGID_3_);}
	.st11{fill:url(#SVGID_4_);}
	.st12{fill:url(#SVGID_5_);}
	.st13{fill:url(#SVGID_6_);}
</style>
<g class="st0">
	<path class="st1" d="M89.2,29.9L49.4-9.9c-2.3-2.3-6-2.3-8.3,0l-8.3,8.3L43.3,8.9c2.4-0.8,5.2-0.3,7.2,1.7s2.5,4.8,1.7,7.2
		l10.1,10.1c2.4-0.8,5.3-0.3,7.2,1.7c2.7,2.7,2.7,7.1,0,9.9c-2.7,2.7-7.1,2.7-9.9,0c-2.1-2.1-2.6-5.1-1.5-7.6l-9.4-9.4v24.8
		c0.7,0.3,1.3,0.8,1.8,1.3c2.7,2.7,2.7,7.1,0,9.9c-2.7,2.7-7.2,2.7-9.9,0s-2.7-7.2,0-9.9c0.7-0.7,1.5-1.2,2.3-1.5v-25
		c-0.8-0.3-1.6-0.8-2.3-1.5c-2.1-2.1-2.6-5.1-1.5-7.6L28.8,2.7L1.5,30c-2.3,2.3-2.3,6,0,8.3l39.8,39.8c2.3,2.3,6,2.3,8.3,0
		l39.6-39.6C91.5,35.9,91.5,32.2,89.2,29.9z"/>
</g>
<g class="st0">
	<path class="st2" d="M90.7,34c0-6-7.5-11.7-19-15.2C74.3,7.1,73.2-2.2,68-5.2c-1.2-0.7-2.6-1-4.1-1v4.1c0.8,0,1.5,0.2,2.1,0.5
		c2.5,1.4,3.6,6.9,2.7,14c-0.2,1.7-0.5,3.6-0.9,5.4c-3.6-0.9-7.6-1.6-11.7-2c-2.5-3.4-5.1-6.5-7.7-9.2c6-5.6,11.7-8.7,15.5-8.7v-4.1
		l0,0c-5.1,0-11.7,3.6-18.4,9.9C38.7-2.6,32.1-6.2,27-6.2v4.1c3.8,0,9.5,3,15.5,8.6c-2.6,2.7-5.2,5.8-7.6,9.2
		c-4.2,0.4-8.1,1.1-11.7,2c-0.4-1.8-0.7-3.6-1-5.4c-0.9-7,0.2-12.5,2.7-14c0.6-0.3,1.3-0.5,2.1-0.5v-4.1l0,0c-1.6,0-3,0.3-4.2,1
		c-5.2,3-6.3,12.3-3.7,24c-11.5,3.5-19,9.2-19,15.2c0,6,7.5,11.7,19,15.2c-2.7,11.7-1.5,21.1,3.7,24.1c1.2,0.7,2.6,1,4.2,1
		c5.1,0,11.7-3.6,18.4-9.9c6.7,6.2,13.4,9.8,18.4,9.8c1.6,0,3-0.3,4.2-1c5.2-3,6.3-12.3,3.7-24C83.2,45.7,90.7,40,90.7,34z
		 M66.7,21.7c-0.7,2.4-1.5,4.8-2.5,7.3c-0.8-1.5-1.6-3-2.4-4.4c-0.8-1.5-1.8-2.9-2.7-4.3C61.7,20.7,64.3,21.1,66.7,21.7z M58.2,41.4
		c-1.4,2.5-2.9,4.9-4.4,7c-2.7,0.2-5.5,0.4-8.3,0.4c-2.8,0-5.6-0.1-8.3-0.4c-1.5-2.2-3-4.5-4.5-7c-1.4-2.4-2.7-4.9-3.8-7.3
		c1.1-2.5,2.4-4.9,3.8-7.4c1.4-2.5,2.9-4.9,4.4-7c2.7-0.2,5.5-0.4,8.3-0.4c2.8,0,5.6,0.1,8.3,0.4c1.5,2.2,3,4.5,4.5,7
		c1.4,2.4,2.7,4.9,3.8,7.3C60.9,36.5,59.6,39,58.2,41.4z M64.2,39c1,2.5,1.8,4.9,2.5,7.3c-2.4,0.6-5,1.1-7.6,1.5
		c0.9-1.4,1.8-2.9,2.7-4.4C62.6,41.9,63.4,40.5,64.2,39z M45.5,58.7c-1.7-1.8-3.4-3.7-5.1-5.9c1.7,0.1,3.4,0.1,5.1,0.1
		c1.7,0,3.5,0,5.1-0.1C48.9,54.9,47.2,56.9,45.5,58.7z M31.8,47.8c-2.6-0.4-5.1-0.9-7.6-1.5c0.7-2.4,1.5-4.8,2.5-7.3
		c0.8,1.5,1.6,3,2.4,4.4C30,45,30.9,46.4,31.8,47.8z M45.4,9.4c1.7,1.8,3.4,3.7,5.1,5.9c-1.7-0.1-3.4-0.1-5.1-0.1
		c-1.7,0-3.5,0-5.1,0.1C42,13.1,43.7,11.2,45.4,9.4z M31.7,20.3c-0.9,1.4-1.8,2.9-2.7,4.4c-0.8,1.5-1.6,3-2.4,4.4
		c-1-2.5-1.8-4.9-2.5-7.3C26.6,21.2,29.1,20.7,31.7,20.3z M15,43.4C8.5,40.6,4.3,36.9,4.3,34s4.2-6.6,10.8-9.3
		c1.6-0.7,3.3-1.3,5.1-1.9c1.1,3.6,2.4,7.4,4.2,11.2c-1.7,3.8-3.1,7.6-4.1,11.2C18.4,44.7,16.6,44.1,15,43.4z M25,69.7
		c-2.5-1.4-3.6-6.9-2.7-14c0.2-1.7,0.5-3.6,0.9-5.4c3.6,0.9,7.6,1.6,11.7,2c2.5,3.4,5.1,6.5,7.7,9.2c-6,5.6-11.7,8.7-15.5,8.7
		C26.2,70.2,25.5,70.1,25,69.7z M68.7,55.7c0.9,7-0.2,12.5-2.7,14c-0.6,0.3-1.3,0.5-2.1,0.5c-3.8,0-9.5-3-15.5-8.6
		c2.6-2.7,5.2-5.8,7.6-9.2c4.2-0.4,8.1-1.1,11.7-2C68.2,52.2,68.5,54,68.7,55.7z M75.8,43.4c-1.6,0.7-3.3,1.3-5.1,1.9
		c-1.1-3.6-2.4-7.4-4.2-11.2c1.7-3.8,3.1-7.6,4.1-11.2c1.8,0.6,3.6,1.2,5.2,1.9c6.5,2.8,10.8,6.4,10.8,9.3
		C86.6,36.9,82.4,40.6,75.8,43.4z"/>
	<path class="st2" d="M27-6.2L27-6.2L27-6.2z"/>
	<circle class="st2" cx="45.4" cy="34" r="8.4"/>
	<path class="st2" d="M63.8-6.3L63.8-6.3L63.8-6.3z"/>
</g>
<script  xmlns=""></script>
<g>
	<path class="st3" d="M45.4,55.1c-0.3,0-0.6-0.1-0.9-0.2l-2.7-1.6c-0.4-0.2-0.2-0.3-0.1-0.4c0.5-0.2,0.6-0.2,1.2-0.6
		c0.1,0,0.1,0,0.2,0l2.1,1.2c0.1,0,0.2,0,0.3,0l8.1-4.7c0.1,0,0.1-0.1,0.1-0.2v-9.4c0-0.1,0-0.2-0.1-0.2l-8.1-4.7
		c-0.1,0-0.2,0-0.3,0l-8.1,4.7c-0.1,0-0.1,0.1-0.1,0.2v9.4c0,0.1,0,0.2,0.1,0.2l2.2,1.3c1.2,0.6,1.9-0.1,1.9-0.8v-9.3
		c0-0.1,0.1-0.2,0.2-0.2h1c0.1,0,0.2,0.1,0.2,0.2v9.3c0,1.6-0.9,2.5-2.4,2.5c-0.5,0-0.8,0-1.9-0.5l-2.1-1.2
		c-0.5-0.3-0.9-0.9-0.9-1.5v-9.4c0-0.6,0.3-1.2,0.9-1.5l8.1-4.7c0.5-0.3,1.2-0.3,1.7,0l8.1,4.7c0.5,0.3,0.9,0.9,0.9,1.5v9.4
		c0,0.6-0.3,1.2-0.9,1.5l-8.1,4.7C46,55,45.7,55.1,45.4,55.1z"/>
	<path class="st3" d="M47.9,48.6c-3.6,0-4.3-1.6-4.3-3c0-0.1,0.1-0.2,0.2-0.2h1.1c0.1,0,0.2,0.1,0.2,0.2c0.2,1.1,0.6,1.6,2.8,1.6
		c1.7,0,2.4-0.4,2.4-1.3c0-0.5-0.2-0.9-2.9-1.2c-2.2-0.2-3.6-0.7-3.6-2.5c0-1.6,1.4-2.6,3.7-2.6c2.6,0,3.9,0.9,4.1,2.8
		c0,0.1,0,0.1-0.1,0.2c0,0-0.1,0.1-0.2,0.1h-1.1c-0.1,0-0.2-0.1-0.2-0.2c-0.3-1.1-0.9-1.5-2.5-1.5c-1.9,0-2.1,0.7-2.1,1.1
		c0,0.6,0.3,0.8,2.8,1.1c2.5,0.3,3.7,0.8,3.7,2.6C52,47.6,50.5,48.6,47.9,48.6z"/>
</g>
<g>
	<path class="st3" d="M59.6,38.8c0,0.9-0.7,1.6-1.6,1.6c-0.9,0-1.6-0.7-1.6-1.6c0-0.9,0.7-1.6,1.6-1.6
		C58.9,37.2,59.6,37.9,59.6,38.8z M56.8,38.8c0,0.7,0.6,1.3,1.3,1.3c0.7,0,1.3-0.6,1.3-1.3c0-0.7-0.6-1.3-1.3-1.3
		C57.3,37.5,56.8,38.1,56.8,38.8z M57.5,37.9h0.6c0.2,0,0.6,0,0.6,0.5c0,0.3-0.2,0.4-0.3,0.4c0.2,0,0.3,0.2,0.3,0.4
		c0,0.1,0,0.4,0.1,0.5h-0.4c0-0.1-0.1-0.5-0.1-0.6c0-0.1-0.1-0.1-0.2-0.1h-0.3v0.7h-0.3V37.9z M57.8,38.7h0.3c0.2,0,0.3-0.2,0.3-0.2
		c0-0.2-0.2-0.2-0.3-0.2h-0.3V38.7z"/>
</g>
<path class="st4" d="M20.3,18.4c0-0.4-0.2-0.7-0.5-0.9l-8.6-5c-0.1-0.1-0.3-0.1-0.5-0.1c0,0-0.1,0-0.1,0c-0.2,0-0.3,0.1-0.5,0.1
	l-8.6,5c-0.3,0.2-0.5,0.5-0.5,0.9l0,13.3c0,0.2,0.1,0.4,0.3,0.4c0.2,0.1,0.4,0.1,0.5,0l5.1-2.9c0.3-0.2,0.5-0.5,0.5-0.9v-6.2
	c0-0.4,0.2-0.7,0.5-0.9l2.2-1.3c0.2-0.1,0.3-0.1,0.5-0.1c0.2,0,0.4,0,0.5,0.1l2.2,1.3c0.3,0.2,0.5,0.5,0.5,0.9v6.2
	c0,0.4,0.2,0.7,0.5,0.9l5.1,2.9c0.2,0.1,0.4,0.1,0.5,0c0.2-0.1,0.3-0.3,0.3-0.4L20.3,18.4z"/>
<path class="st4" d="M61.7,0.1c-0.2-0.1-0.4-0.1-0.5,0c-0.2,0.1-0.3,0.3-0.3,0.4v13.2c0,0.1-0.1,0.3-0.2,0.3c-0.1,0.1-0.3,0.1-0.4,0
	l-2.2-1.2c-0.3-0.2-0.7-0.2-1,0l-8.6,5C48.2,18,48,18.3,48,18.7v9.9c0,0.4,0.2,0.7,0.5,0.9l8.6,5c0.3,0.2,0.7,0.2,1,0l8.6-5
	c0.3-0.2,0.5-0.5,0.5-0.9V3.8c0-0.4-0.2-0.7-0.5-0.9L61.7,0.1z M60.9,25.4c0,0.1,0,0.2-0.1,0.2l-3,1.7c-0.1,0-0.2,0-0.3,0l-3-1.7
	c-0.1,0-0.1-0.1-0.1-0.2v-3.4c0-0.1,0-0.2,0.1-0.2l3-1.7c0.1,0,0.2,0,0.3,0l3,1.7c0.1,0,0.1,0.1,0.1,0.2V25.4z"/>
<g>
	<path class="st4" d="M90.4,21.9c0.3-0.2,0.5-0.5,0.5-0.9v-2.4c0-0.4-0.2-0.7-0.5-0.9l-8.6-5c-0.3-0.2-0.7-0.2-1,0l-8.6,5
		c-0.3,0.2-0.5,0.5-0.5,0.9v9.9c0,0.4,0.2,0.7,0.5,0.9l8.6,4.9c0.3,0.2,0.7,0.2,1,0l5.2-2.9c0.2-0.1,0.3-0.3,0.3-0.5
		c0-0.2-0.1-0.4-0.3-0.5l-8.7-5c-0.2-0.1-0.3-0.3-0.3-0.5V22c0-0.2,0.1-0.4,0.3-0.5l2.7-1.6c0.2-0.1,0.4-0.1,0.5,0l2.7,1.6
		c0.2,0.1,0.3,0.3,0.3,0.5v2.5c0,0.2,0.1,0.4,0.3,0.5c0.2,0.1,0.4,0.1,0.5,0L90.4,21.9z"/>
	<path class="st5" d="M81.2,21.4c0.1,0,0.1,0,0.2,0l1.7,1c0.1,0,0.1,0.1,0.1,0.2v1.9c0,0.1,0,0.1-0.1,0.2l-1.7,1c-0.1,0-0.1,0-0.2,0
		l-1.7-1c-0.1,0-0.1-0.1-0.1-0.2v-1.9c0-0.1,0-0.1,0.1-0.2L81.2,21.4z"/>
</g>
<g>
	<defs>
		<path id="XMLID_143_" d="M34.7,12.7c-0.3-0.2-0.7-0.2-1,0l-8.6,4.9c-0.3,0.2-0.5,0.5-0.5,0.9v9.9c0,0.4,0.2,0.7,0.5,0.9l8.6,4.9
			c0.3,0.2,0.7,0.2,1,0l8.6-4.9c0.3-0.2,0.5-0.5,0.5-0.9v-9.9c0-0.4-0.2-0.7-0.5-0.9L34.7,12.7z"/>
	</defs>
	<linearGradient id="XMLID_4_" gradientUnits="userSpaceOnUse" x1="37.6308" y1="16.4088" x2="29.8908" y2="32.1984">
		<stop  offset="0" style="stop-color:#38762D"/>
		<stop  offset="0.3138" style="stop-color:#387A2B"/>
		<stop  offset="0.6062" style="stop-color:#3A8525"/>
		<stop  offset="0.8894" style="stop-color:#3C981B"/>
		<stop  offset="1" style="stop-color:#3DA115"/>
	</linearGradient>
	<use xlink:href="#XMLID_143_"  style="overflow:visible;fill-rule:evenodd;clip-rule:evenodd;fill:url(#XMLID_4_);"/>
	<clipPath id="XMLID_5_">
		<use xlink:href="#XMLID_143_"  style="overflow:visible;"/>
	</clipPath>
	<g class="st6">
		<path class="st7" d="M33.6,12.7L25,17.7c-0.3,0.2-0.6,0.5-0.6,0.9v9.9c0,0.2,0.1,0.5,0.3,0.7l9.6-16.5
			C34.1,12.6,33.8,12.6,33.6,12.7z"/>
		<path class="st7" d="M34.4,34.4c0.1,0,0.2-0.1,0.2-0.1l8.6-4.9c0.3-0.2,0.5-0.5,0.5-0.9v-9.9c0-0.3-0.1-0.5-0.3-0.7L34.4,34.4z"/>
		<linearGradient id="SVGID_1_" gradientUnits="userSpaceOnUse" x1="32.8434" y1="24.6722" x2="54.5612" y2="8.6259">
			<stop  offset="0.1376" style="stop-color:#38762D"/>
			<stop  offset="0.4399" style="stop-color:#4C9530"/>
			<stop  offset="0.728" style="stop-color:#5BAD32"/>
			<stop  offset="0.9081" style="stop-color:#61B533"/>
		</linearGradient>
		<path class="st8" d="M43.2,17.7l-8.6-4.9c-0.1,0-0.2-0.1-0.3-0.1l-9.6,16.5c0.1,0.1,0.2,0.2,0.3,0.2l8.6,4.9
			c0.2,0.1,0.5,0.2,0.8,0.1l9-16.6C43.4,17.8,43.3,17.7,43.2,17.7z"/>
	</g>
	<g class="st6">
		<path class="st7" d="M43.8,28.5v-9.9c0-0.4-0.2-0.7-0.5-0.9l-8.6-4.9c-0.1-0.1-0.2-0.1-0.3-0.1l9.4,16.1
			C43.8,28.6,43.8,28.5,43.8,28.5z"/>
		<path class="st7" d="M25,17.7c-0.3,0.2-0.6,0.5-0.6,0.9v9.9c0,0.4,0.2,0.7,0.6,0.9l8.6,4.9c0.2,0.1,0.4,0.2,0.7,0.1L25,17.7
			L25,17.7z"/>
		<linearGradient id="SVGID_2_" gradientUnits="userSpaceOnUse" x1="24.2432" y1="10.9431" x2="44.0516" y2="10.9431">
			<stop  offset="9.191646e-02" style="stop-color:#61B533"/>
			<stop  offset="0.272" style="stop-color:#5BAD32"/>
			<stop  offset="0.5601" style="stop-color:#4C9530"/>
			<stop  offset="0.8624" style="stop-color:#38762D"/>
		</linearGradient>
		<polygon class="st9" points="33.3,10.9 33.2,11 33.4,11 		"/>
		<linearGradient id="SVGID_3_" gradientUnits="userSpaceOnUse" x1="24.2432" y1="23.5128" x2="44.0516" y2="23.5128">
			<stop  offset="9.191646e-02" style="stop-color:#61B533"/>
			<stop  offset="0.272" style="stop-color:#5BAD32"/>
			<stop  offset="0.5601" style="stop-color:#4C9530"/>
			<stop  offset="0.8624" style="stop-color:#38762D"/>
		</linearGradient>
		<path class="st10" d="M43.3,29.4c0.2-0.1,0.4-0.4,0.5-0.7l-9.4-16.1c-0.2,0-0.5,0-0.7,0.1l-8.5,4.9l9.2,16.8
			c0.1,0,0.3-0.1,0.4-0.1L43.3,29.4z"/>
		<linearGradient id="SVGID_4_" gradientUnits="userSpaceOnUse" x1="24.2432" y1="29.1677" x2="44.0516" y2="29.1677">
			<stop  offset="9.191646e-02" style="stop-color:#61B533"/>
			<stop  offset="0.272" style="stop-color:#5BAD32"/>
			<stop  offset="0.5601" style="stop-color:#4C9530"/>
			<stop  offset="0.8624" style="stop-color:#38762D"/>
		</linearGradient>
		<polygon class="st11" points="44.1,29.2 44,29.1 44,29.2 		"/>
		<linearGradient id="SVGID_5_" gradientUnits="userSpaceOnUse" x1="24.2432" y1="31.7236" x2="44.0516" y2="31.7236">
			<stop  offset="9.191646e-02" style="stop-color:#61B533"/>
			<stop  offset="0.272" style="stop-color:#5BAD32"/>
			<stop  offset="0.5601" style="stop-color:#4C9530"/>
			<stop  offset="0.8624" style="stop-color:#38762D"/>
		</linearGradient>
		<path class="st12" d="M43.3,29.4l-8.6,4.9c-0.1,0.1-0.2,0.1-0.4,0.1l0.2,0.3l9.5-5.5v-0.1l-0.2-0.4C43.7,29,43.5,29.2,43.3,29.4z"
			/>
		<linearGradient id="SVGID_6_" gradientUnits="userSpaceOnUse" x1="46.9375" y1="15.9407" x2="34.7209" y2="40.8626">
			<stop  offset="0" style="stop-color:#38762D"/>
			<stop  offset="0.3138" style="stop-color:#387A2B"/>
			<stop  offset="0.6062" style="stop-color:#3A8525"/>
			<stop  offset="0.8894" style="stop-color:#3C981B"/>
			<stop  offset="1" style="stop-color:#3DA115"/>
		</linearGradient>
		<path class="st13" d="M43.3,29.4l-8.6,4.9c-0.1,0.1-0.2,0.1-0.4,0.1l0.2,0.3l9.5-5.5v-0.1l-0.2-0.4C43.7,29,43.5,29.2,43.3,29.4z"
			/>
	</g>
</g>
</svg>
