<?xml version="1.0" encoding="utf-8"?>
<!-- Generator: Adobe Illustrator 24.2.3, SVG Export Plug-In . SVG Version: 6.00 Build 0)  -->
<svg version="1.1" id="Layer_1" xmlns="http://www.w3.org/2000/svg" xmlns:xlink="http://www.w3.org/1999/xlink" x="0px" y="0px"
	 viewBox="0 0 90.9 80.5" style="enable-background:new 0 0 90.9 80.5;" xml:space="preserve">
<style type="text/css">
	.st0{display:none;}
	.st1{display:inline;fill:#F05133;}
	.st2{fill:#61DAFB;}
</style>
<g class="st0">
	<path class="st1" d="M89.2,36.1L49.4-3.7c-2.3-2.3-6-2.3-8.3,0l-8.3,8.3l10.5,10.5c2.4-0.8,5.2-0.3,7.2,1.7s2.5,4.8,1.7,7.2
		l10.1,10.1c2.4-0.8,5.3-0.3,7.2,1.7c2.7,2.7,2.7,7.1,0,9.9c-2.7,2.7-7.1,2.7-9.9,0c-2.1-2.1-2.6-5.1-1.5-7.6l-9.4-9.4v24.8
		c0.7,0.3,1.3,0.8,1.8,1.3c2.7,2.7,2.7,7.1,0,9.9c-2.7,2.7-7.2,2.7-9.9,0c-2.7-2.7-2.7-7.2,0-9.9c0.7-0.7,1.5-1.2,2.3-1.5v-25
		c-0.8-0.3-1.6-0.8-2.3-1.5c-2.1-2.1-2.6-5.1-1.5-7.6L28.8,8.9L1.5,36.2c-2.3,2.3-2.3,6,0,8.3l39.8,39.8c2.3,2.3,6,2.3,8.3,0
		l39.6-39.6C91.5,42.1,91.5,38.4,89.2,36.1z"/>
</g>
<g>
	<path class="st2" d="M90.7,40.2c0-6-7.5-11.7-19-15.2C74.3,13.3,73.2,4,68,1c-1.2-0.7-2.6-1-4.1-1v4.1c0.8,0,1.5,0.2,2.1,0.5
		c2.5,1.4,3.6,6.9,2.7,14c-0.2,1.7-0.5,3.6-0.9,5.4c-3.6-0.9-7.6-1.6-11.7-2c-2.5-3.4-5.1-6.5-7.7-9.2C54.4,7.1,60,4,63.8,4v-4.1
		l0,0c-5.1,0-11.7,3.6-18.4,9.9C38.7,3.6,32.1,0,27,0v4.1c3.8,0,9.5,3,15.5,8.6c-2.6,2.7-5.2,5.8-7.6,9.2c-4.2,0.4-8.1,1.1-11.7,2
		c-0.4-1.8-0.7-3.6-1-5.4c-0.9-7,0.2-12.5,2.7-14c0.6-0.3,1.3-0.5,2.1-0.5V0l0,0c-1.6,0-3,0.3-4.2,1c-5.2,3-6.3,12.3-3.7,24
		c-11.5,3.5-19,9.2-19,15.2c0,6,7.5,11.7,19,15.2c-2.7,11.7-1.5,21.1,3.7,24.1c1.2,0.7,2.6,1,4.2,1c5.1,0,11.7-3.6,18.4-9.9
		c6.7,6.2,13.4,9.8,18.4,9.8c1.6,0,3-0.3,4.2-1c5.2-3,6.3-12.3,3.7-24C83.2,51.9,90.7,46.2,90.7,40.2z M66.7,27.9
		c-0.7,2.4-1.5,4.8-2.5,7.3c-0.8-1.5-1.6-3-2.4-4.4c-0.8-1.5-1.8-2.9-2.7-4.3C61.7,26.9,64.3,27.3,66.7,27.9z M58.2,47.6
		c-1.4,2.5-2.9,4.9-4.4,7C51,54.9,48.3,55,45.4,55c-2.8,0-5.6-0.1-8.3-0.4c-1.5-2.2-3-4.5-4.5-7c-1.4-2.4-2.7-4.9-3.8-7.3
		c1.1-2.5,2.4-4.9,3.8-7.4c1.4-2.5,2.9-4.9,4.4-7c2.7-0.2,5.5-0.4,8.3-0.4c2.8,0,5.6,0.1,8.3,0.4c1.5,2.2,3,4.5,4.5,7
		c1.4,2.4,2.7,4.9,3.8,7.3C60.9,42.7,59.6,45.2,58.2,47.6z M64.2,45.2c1,2.5,1.8,4.9,2.5,7.3c-2.4,0.6-5,1.1-7.6,1.5
		c0.9-1.4,1.8-2.9,2.7-4.4C62.6,48.2,63.4,46.7,64.2,45.2z M45.5,64.9c-1.7-1.8-3.4-3.7-5.1-5.9c1.7,0.1,3.4,0.1,5.1,0.1
		c1.7,0,3.5,0,5.1-0.1C48.9,61.1,47.2,63.1,45.5,64.9z M31.8,54c-2.6-0.4-5.1-0.9-7.6-1.5c0.7-2.4,1.5-4.8,2.5-7.3
		c0.8,1.5,1.6,3,2.4,4.4C30,51.2,30.9,52.6,31.8,54z M45.4,15.6c1.7,1.8,3.4,3.7,5.1,5.9c-1.7-0.1-3.4-0.1-5.1-0.1
		c-1.7,0-3.5,0-5.1,0.1C42,19.4,43.7,17.4,45.4,15.6z M31.7,26.5c-0.9,1.4-1.8,2.9-2.7,4.4c-0.8,1.5-1.6,3-2.4,4.4
		c-1-2.5-1.8-4.9-2.5-7.3C26.6,27.4,29.1,26.9,31.7,26.5z M15,49.6c-6.5-2.8-10.8-6.4-10.8-9.3s4.2-6.6,10.8-9.3
		c1.6-0.7,3.3-1.3,5.1-1.9c1.1,3.6,2.4,7.4,4.2,11.2c-1.7,3.8-3.1,7.6-4.1,11.2C18.4,50.9,16.6,50.3,15,49.6z M25,76
		c-2.5-1.4-3.6-6.9-2.7-14c0.2-1.7,0.5-3.6,0.9-5.4c3.6,0.9,7.6,1.6,11.7,2c2.5,3.4,5.1,6.5,7.7,9.2c-6,5.6-11.7,8.7-15.5,8.7
		C26.2,76.4,25.5,76.3,25,76z M68.7,61.9c0.9,7-0.2,12.5-2.7,14c-0.6,0.3-1.3,0.5-2.1,0.5c-3.8,0-9.5-3-15.5-8.6
		C51,65,53.6,62,56,58.6c4.2-0.4,8.1-1.1,11.7-2C68.2,58.4,68.5,60.2,68.7,61.9z M75.8,49.6c-1.6,0.7-3.3,1.3-5.1,1.9
		c-1.1-3.6-2.4-7.4-4.2-11.2c1.7-3.8,3.1-7.6,4.1-11.2c1.8,0.6,3.6,1.2,5.2,1.9c6.5,2.8,10.8,6.4,10.8,9.3
		C86.6,43.1,82.4,46.8,75.8,49.6z"/>
	<path class="st2" d="M27,0L27,0L27,0z"/>
	<circle class="st2" cx="45.4" cy="40.2" r="8.4"/>
	<path class="st2" d="M63.8-0.1L63.8-0.1L63.8-0.1z"/>
</g>
<script  xmlns=""></script>
</svg>
